<?xml version="1.0" encoding="utf-8"?>
<!-- Generator: Adobe Illustrator 23.1.1, SVG Export Plug-In . SVG Version: 6.00 Build 0)  -->
<svg version="1.1" id="Layer_1" xmlns="http://www.w3.org/2000/svg" xmlns:xlink="http://www.w3.org/1999/xlink" x="0px" y="0px"
	 viewBox="0 0 508 508" style="enable-background:new 0 0 508 508;" xml:space="preserve">
<style type="text/css">
	.st0{fill:#FD8469;}
	.st1{fill:#84DBFF;}
	.st2{fill:#FFFFFF;}
	.st3{fill:#54C0EB;}
	.st4{fill:#324A5E;}
	.st5{fill:none;stroke:#F5846A;stroke-width:19;stroke-miterlimit:10;}
</style>
<circle class="st0" cx="254" cy="254" r="214"/>
<g>
	<path class="st1" d="M255,345.7c-0.3,0-0.7,0.3-1,0.3s-0.7-0.3-1-0.3H255z"/>
	<path class="st1" d="M420.1,388.8C381.1,437,321.1,468,254,468s-127.1-31-166.1-79.2c28-37.4,70.8-55.9,105.8-65
		c-2.7,22.2,8.8,51.9,9.1,51.2c11.8-27,51.2-29.3,51.2-29.3s39.4,2.4,50.9,29.3c0.3,0.7,12.1-29,9.1-51.2
		C349.4,332.9,392.5,351.4,420.1,388.8z"/>
</g>
<path class="st2" d="M302.2,302.9c0,0,0,0,0,0.3c0,3.4-1.7,24.9-47.2,42.1h-2c-45.5-17.2-47.2-38.8-47.2-42.1c0-0.3,0-0.3,0-0.3
	c0-4.4,1-8.8,2-13.1c13.1,16.5,29,27.6,46.2,27.6s33-11.1,46.2-27.6C301.2,294.1,302.2,298.5,302.2,302.9z"/>
<g>
	<path class="st3" d="M302.2,302.9c0,0,2.4,24.3-48.2,43.1c0,0,39.4,2.4,50.9,29.3C305.6,376,328.1,317.4,302.2,302.9z"/>
	<path class="st3" d="M205.8,302.9c-25.9,14.5-3.4,73.1-2.7,72.1c11.8-27,50.9-29.3,50.9-29.3C203.4,327.1,205.8,302.9,205.8,302.9z
		"/>
</g>
<g>
	<path class="st2" d="M324.8,217.6c-3,20.9-12.1,40.4-27.3,55.3c-3,3-5.7,5.4-9.1,7.8l-5.4-17.2h-58l-5.4,17.2
		c-10.8-8.1-33.4-30.7-33.7-51.9c-9.4-121,83.2-95.4,83.2-95.4C331.5,129,329.5,183.9,324.8,217.6z"/>
	<path class="st2" d="M337.2,239.5c-4.7,7.8-11.1,13.1-17.2,15.2c2.4-5.4,4.4-11.1,6.1-16.9c0,0,0,0,0-0.3c1.3-5.1,2.7-10.1,4-15.2
		h-0.3c1.3-5.1,2.7-10.1,3.7-15.2c1.3,0,2.7,0.7,4,1.3C345,213.2,344.7,227,337.2,239.5z"/>
	<path class="st2" d="M187.9,254.7c-6.1-2-12.5-7.4-17.2-15.2c-7.8-12.5-7.8-26.3-0.3-30.7c0.7-0.3,1-0.7,1.7-0.7
		c4,15.8,8.8,27.6,9.8,30C183.6,243.6,185.6,249.3,187.9,254.7z"/>
</g>
<path id="SVGCleanerId_0" class="st4" d="M290.7,99.7c2.7-31-46.5-29-46.5-29c-74.5,10.8-82.6,80.2-82.6,80.2l10.1-12.1
	c-15.8,34.7,8.1,94.4,10.1,99.1c12.5,41.5,40.1,79.5,72.1,79.5s59.7-38.1,72.1-79.5l0,0c0,0,0,0,0-0.3c1.3-5.1,2.7-10.1,3.7-15.2
	h-0.3c6.7-27,14.2-54.3,14.2-54.3C362.9,71.3,290.7,99.7,290.7,99.7z M324.8,217.6c-3,20.9-12.1,40.4-27.3,55.3
	c-3,3-6.1,5.4-9.1,7.8l-5.4-16.9h-58l-5.4,17.2c-10.8-8.1-19.9-19.2-27.3-32c-3.4-6.7-5.4-13.8-6.4-19.9
	c-9.4-121,83.2-95.4,83.2-95.4C331.5,129,329.5,183.9,324.8,217.6z"/>
<g>
	<path id="SVGCleanerId_0_1_" class="st4" d="M290.7,99.7c2.7-31-46.5-29-46.5-29c-74.5,10.8-82.6,80.2-82.6,80.2l10.1-12.1
		c-15.8,34.7,8.1,94.4,10.1,99.1c12.5,41.5,40.1,79.5,72.1,79.5s59.7-38.1,72.1-79.5l0,0c0,0,0,0,0-0.3c1.3-5.1,2.7-10.1,3.7-15.2
		h-0.3c6.7-27,14.2-54.3,14.2-54.3C362.9,71.3,290.7,99.7,290.7,99.7z M324.8,217.6c-3,20.9-12.1,40.4-27.3,55.3
		c-3,3-6.1,5.4-9.1,7.8l-5.4-16.9h-58l-5.4,17.2c-10.8-8.1-19.9-19.2-27.3-32c-3.4-6.7-5.4-13.8-6.4-19.9
		c-9.4-121,83.2-95.4,83.2-95.4C331.5,129,329.5,183.9,324.8,217.6z"/>
</g>
<path class="st4" d="M290.7,99.7c2.7-31-46.5-29-46.5-29c-74.5,10.8-82.6,80.2-82.6,80.2l10.1-12.1c-15.8,34.7,8.1,94.4,10.1,99.1
	c12.5,41.5,40.1,79.5,72.1,79.5s59.7-38.1,72.1-79.5l0,0c0,0,0,0,0-0.3c1.3-5.1,2.7-10.1,3.7-15.2h-0.3c6.7-27,14.2-54.3,14.2-54.3
	C362.9,71.3,290.7,99.7,290.7,99.7z M324.8,217.6c-3,20.9-12.1,40.4-27.3,55.3c-3,3-6.1,5.4-9.1,7.8l-5.4-16.9h-58l-5.4,17.2
	c-10.8-8.1-33.4-30.7-33.7-51.9c-9.4-121,83.2-95.4,83.2-95.4C331.5,129,329.5,183.9,324.8,217.6z"/>
<path class="st2" d="M230.4,275.2c5.7,6.4,14.2,10.8,23.6,10.8s17.9-4,23.6-10.8H230.4z"/>
<circle class="st5" cx="254.5" cy="254" r="244.4"/>
</svg>
