<?xml version="1.0" encoding="utf-8"?>
<!-- Generator: Adobe Illustrator 23.1.1, SVG Export Plug-In . SVG Version: 6.00 Build 0)  -->
<svg version="1.1" id="Layer_1" xmlns="http://www.w3.org/2000/svg" xmlns:xlink="http://www.w3.org/1999/xlink" x="0px" y="0px"
	 viewBox="0 0 508 508" style="enable-background:new 0 0 508 508;" xml:space="preserve">
<style type="text/css">
	.st0{fill:#FD8469;}
	.st1{fill:#2B3B4E;}
	.st2{fill:#F9B54C;}
	.st3{fill:#FFFFFF;}
	.st4{fill:#324A5E;}
	.st5{fill:#FFD05B;}
	.st6{fill:#54C0EB;}
	.st7{fill:#84DBFF;}
	.st8{fill:none;stroke:#F5846A;stroke-width:19;stroke-miterlimit:10;}
</style>
<circle class="st0" cx="254" cy="254" r="214.1"/>
<path class="st1" d="M204.8,275.9c0,0,41.5-27.7,98.5,0l-10.8,24.6h-77.2L204.8,275.9z"/>
<path class="st2" d="M271.9,251h-35.7c-8.8,18.2-21.2,35.1-37.1,39.5l31,60.4h47.9l31-60.4C292.8,286,280.6,269.2,271.9,251z"/>
<path class="st3" d="M302.6,293.1c-28.3,25-71.1,24.6-98.8-1.3c-23.3,24.6-46.2,49.2-69.5,73.8c46.5,43.5,110.9,57,168.3,40.5V293.1
	z"/>
<path class="st4" d="M324.8,189.9L324.8,189.9c-9.1-7.4-13.5-18.2-12.8-29.7c1.3-21.6-4-58-57.7-57.3c-53.6-0.7-59.3,35.7-57.7,57.3
	c0.7,11.1-4,22.3-12.8,29.7l0,0c-28.7,20.6-13.5,64.4,22.3,64.4H254h48.6C338.3,254.3,353.1,210.5,324.8,189.9z"/>
<path class="st5" d="M306.3,191.6c-0.3,39.8-22.9,72.2-50.6,72.2c-28,0-50.6-32.7-50.6-72.8c0-2.7,0-5.7,0.3-8.4
	c20.6-7.1,37.1-20.9,48.2-32.7C267.8,167.3,286,184.5,306.3,191.6z"/>
<path class="st6" d="M328.5,298.2l-19.6-7.4l-3-1l-1-0.3l-2.4,4.4l-30,57.7L254,387.2l-18.9-36.1l-30.3-58.3l-2-3.7l-1,0.3l-3,1
	l-19.6,7.4l-49.2,18.9l0,0c0.3,1,6.7,15.8,14.5,37.8c2.7,8.1,5.7,16.9,8.8,26.6l0,0c3.7,12.1,7.4,25.3,10.8,38.4l0,0
	c2.7,10.5,4.7,21.2,6.4,31.7c23.3,9.8,48.2,15.5,74.9,16.5c2-1.7,5.1-2.7,8.4-2.7c3.4,0,6.4,1,8.4,2.7c26.3-1,51.6-6.7,74.9-16.5
	c1.7-10.5,4-21.2,6.4-31.7l0,0c12.8-52.6,33-100.5,34.1-102.8l0,0L328.5,298.2z"/>
<path class="st4" d="M204.8,275.9c0,0-27.3,9.8-30,38.4h19.6L179.5,337l74.5,50.2L204.8,275.9z"/>
<path class="st7" d="M164.3,419.6L164.3,419.6c0,0-2.4,10.8-4.7,26.6c-17.2-8.4-33-18.9-47.2-31.4c3-33.7,8.4-68.1,17.5-97.8l0,0
	c0.7,1,10.1,14.2,18.9,33c5.1,10.8,9.8,23.6,12.8,36.8C164.3,397.6,165.3,408.8,164.3,419.6z"/>
<path class="st4" d="M303.2,275.9c0,0,27.3,9.8,30,38.4h-19.6l14.8,22.6L254,387.2L303.2,275.9z"/>
<path class="st7" d="M395.6,414.5c-14.2,12.5-30,23.3-47.2,31.4c-2.4-15.8-4.7-26.3-4.7-26.3l0,0c-5.1-47.2,32.7-100.5,34.1-102.8
	l0,0C386.9,346.4,392.3,381.1,395.6,414.5z"/>
<g>
	<circle class="st4" cx="254" cy="415.2" r="12.1"/>
	<path class="st4" d="M266.1,459.4c0,3.4-1.3,6.4-3.7,8.8c-2.7,0-5.4,0-8.1,0s-5.4,0-8.1,0c-2.4-2-3.7-5.4-3.7-8.8
		c0-6.7,5.4-12.1,12.1-12.1C260.7,447.2,266.1,452.6,266.1,459.4z"/>
</g>
<circle class="st8" cx="254.7" cy="254.1" r="244.4"/>
</svg>
